<?xml version="1.0" encoding="utf-8"?>
<svg
  version="1.1"
  xmlns="http://www.w3.org/2000/svg"
  width="100px" height="100px"
  viewBox="0 0 100 100" opacity="0.5"
>
  <g fill="#000" stroke="#fff" stroke-width="1.5" transform="translate(25,25) scale(0.5)">
    <g id="left">
      <path d="M18 33
       c 0 -9  7 -12  12 -13
         6 -2 13   2  15 8
         2  8 -7  12  -4 20
         0  6  7  14   4 20
        -1  3 -3   5  -9 5
        -1  0 -2  -1  -3 -2
        -3 -4 -3 -10  -5 -16
        -3 -7 -9  -5 -10 -22z"/>
      <ellipse cx="16" cy="25" rx="2" ry="3"/>
      <ellipse cx="20" cy="19" rx="3" ry="4" />
      <ellipse cx="26" cy="15" rx="3.5" ry="5" />
      <ellipse cx="34" cy="13" rx="4" ry="6" />
      <ellipse cx="44" cy="15" rx="5" ry="7" />
    </g>
    <use href="#left" transform="scale(-1, 1) translate(-100,20)" />
  </g>
</svg>